<svg xmlns="http://www.w3.org/2000/svg" version="1.1" xmlns:xlink="http://www.w3.org/1999/xlink" xmlns:svgjs="http://svgjs.dev/svgjs" width="1440" height="1000" preserveAspectRatio="none" viewBox="0 0 1440 1000"><g mask="url(&quot;#SvgjsMask1585&quot;)" fill="none"><rect width="1440" height="1000" x="0" y="0" fill="url(&quot;#SvgjsRadialGradient1586&quot;)"></rect><path d="M -1157.2010492273012,178 C -1013.2,243.8 -725.2,484.6 -437.20104922730127,507 C -149.2,529.4 -5.2,229.8 282.79895077269873,290 C 570.8,350.2 771.36,802.6 1002.7989507726987,808 C 1234.24,813.4 1352.56,415.2 1440,317" stroke="rgba(31, 2, 74, 0)" stroke-width="2"></path><path d="M -156.20502949790557,522 C -12.21,476 275.79,240 563.7949705020944,292 C 851.79,344 995.79,803.2 1283.7949705020944,782 C 1571.79,760.8 1972.55,191 2003.7949705020944,186 C 2035.04,181 1552.76,642.8 1440,757" stroke="rgba(31, 2, 74, 0)" stroke-width="2"></path><path d="M -1049.1530782478974,707 C -905.15,600.2 -617.15,190.8 -329.1530782478974,173 C -41.15,155.2 102.85,618.6 390.8469217521026,618 C 678.85,617.4 901.02,193.4 1110.8469217521026,170 C 1320.68,146.6 1374.17,434.8 1440,501" stroke="rgba(31, 2, 74, 0)" stroke-width="2"></path><path d="M -749.9041705375515,645 C -605.9,601.4 -317.9,439.4 -29.904170537551504,427 C 258.1,414.6 402.1,616.4 690.0958294624485,583 C 978.1,549.6 1260.11,267.6 1410.0958294624486,260 C 1560.08,252.4 1434.02,488 1440,545" stroke="rgba(31, 2, 74, 0)" stroke-width="2"></path><path d="M -793.4831583707403,580 C -649.48,557 -361.48,477.6 -73.48315837074031,465 C 214.52,452.4 358.52,567.6 646.5168416292597,517 C 934.52,466.4 1207.82,200.2 1366.5168416292597,212 C 1525.21,223.8 1425.3,503.2 1440,576" stroke="rgba(31, 2, 74, 0)" stroke-width="2"></path></g><defs><mask id="SvgjsMask1585"><rect width="1440" height="1000" fill="#ffffff"></rect></mask><radialGradient cx="50%" cy="50%" r="876.58" gradientUnits="userSpaceOnUse" id="SvgjsRadialGradient1586"><stop stop-color="rgba(14, 42, 71, 1)" offset="0"></stop><stop stop-color="rgba(0, 0, 0, 1)" offset="0.85"></stop></radialGradient></defs></svg>