<svg xmlns="http://www.w3.org/2000/svg" version="1.1" xmlns:xlink="http://www.w3.org/1999/xlink" xmlns:svgjs="http://svgjs.dev/svgjs" width="1440" height="400" preserveAspectRatio="none" viewBox="0 0 1440 400"><g mask="url(&quot;#SvgjsMask1351&quot;)" fill="none"><rect width="1440" height="400" x="0" y="0" fill="url(&quot;#SvgjsRadialGradient1352&quot;)"></rect><g mask="url(&quot;#SvgjsMask1353&quot;)"><path d="M564 204L588 180L612 180L636 156M180 204L204 228L228 228L252 228M372 204L396 228M780 228L804 204L828 204L852 204L876 204L900 204M756 204L780 180L804 156L828 156L852 156M732 204L756 180L780 156M516 204L540 228L564 228L588 228M420 204L444 228L468 228L492 228L516 228L540 252M-12 204L12 204L36 204L60 204L84 204L108 204L132 204L156 204L180 204L204 204L228 204L252 180L276 180L300 180L324 204L348 204L372 204L396 204L420 204L444 204L468 204L492 204L516 204L540 204L564 204L588 204L612 204L636 204L660 204L684 204L708 204L732 204L756 204L780 228L804 228" stroke="rgba(142, 0, 255, 1)" stroke-width="4"></path><path d="M798 228 a6 6 0 1 0 12 0 a6 6 0 1 0 -12 0zM630 156 a6 6 0 1 0 12 0 a6 6 0 1 0 -12 0zM246 228 a6 6 0 1 0 12 0 a6 6 0 1 0 -12 0zM390 228 a6 6 0 1 0 12 0 a6 6 0 1 0 -12 0zM894 204 a6 6 0 1 0 12 0 a6 6 0 1 0 -12 0zM846 156 a6 6 0 1 0 12 0 a6 6 0 1 0 -12 0zM774 156 a6 6 0 1 0 12 0 a6 6 0 1 0 -12 0zM582 228 a6 6 0 1 0 12 0 a6 6 0 1 0 -12 0zM534 252 a6 6 0 1 0 12 0 a6 6 0 1 0 -12 0z" fill="rgba(142, 0, 255, 1)"></path><path d="M492 132L516 156L540 156L564 156L588 156L612 156M996 108L1020 132L1044 132L1068 132L1092 132M444 156L468 132L492 108L516 108L540 108L564 108M924 108L948 132L972 132L996 132L1020 156L1044 156L1068 156L1092 156L1116 132M900 108L924 132L948 156L972 156M396 156L420 180L444 180L468 180L492 180L516 180L540 180L564 180M324 156L348 132L372 132L396 132L420 132L444 132L468 108L492 84L516 84L540 84L564 84L588 84L612 84L636 84L660 84L684 84L708 84L732 84L756 84M1116 108L1140 108L1164 108L1188 108L1212 108L1236 108L1260 108L1284 108M852 108L876 132L900 132L924 156L948 180L972 180L996 180L1020 180L1044 180L1068 180L1092 180L1116 180L1140 180L1164 180L1188 180L1212 180L1236 180L1260 180L1284 180L1308 180M372 156L396 180M468 156L492 156M660 132L684 156L708 156L732 156L756 156M756 132L780 108M732 132L756 108M-12 180L12 180L36 180L60 180L84 180L108 180L132 180L156 180L180 180L204 180L228 180L252 156L276 156L300 156L324 156L348 156L372 156L396 156L420 156L444 156L468 156L492 132L516 132L540 132L564 132L588 132L612 132L636 132L660 132L684 132L708 132L732 132L756 132L780 132L804 108L828 108L852 108L876 108L900 108L924 108L948 108L972 108L996 108L1020 108L1044 108L1068 108L1092 108L1116 108L1140 132L1164 132L1188 132L1212 132L1236 132L1260 132L1284 132L1308 132L1332 132L1356 156" stroke="rgba(18, 0, 65, 1)" stroke-width="4"></path><path d="M1350 156 a6 6 0 1 0 12 0 a6 6 0 1 0 -12 0zM606 156 a6 6 0 1 0 12 0 a6 6 0 1 0 -12 0zM1086 132 a6 6 0 1 0 12 0 a6 6 0 1 0 -12 0zM558 108 a6 6 0 1 0 12 0 a6 6 0 1 0 -12 0zM1110 132 a6 6 0 1 0 12 0 a6 6 0 1 0 -12 0zM966 156 a6 6 0 1 0 12 0 a6 6 0 1 0 -12 0zM558 180 a6 6 0 1 0 12 0 a6 6 0 1 0 -12 0zM750 84 a6 6 0 1 0 12 0 a6 6 0 1 0 -12 0zM1278 108 a6 6 0 1 0 12 0 a6 6 0 1 0 -12 0zM1302 180 a6 6 0 1 0 12 0 a6 6 0 1 0 -12 0zM390 180 a6 6 0 1 0 12 0 a6 6 0 1 0 -12 0zM486 156 a6 6 0 1 0 12 0 a6 6 0 1 0 -12 0zM750 156 a6 6 0 1 0 12 0 a6 6 0 1 0 -12 0zM774 108 a6 6 0 1 0 12 0 a6 6 0 1 0 -12 0zM750 108 a6 6 0 1 0 12 0 a6 6 0 1 0 -12 0z" fill="rgba(18, 0, 65, 1)"></path><path d="M36 228L60 252L84 252L108 252L132 276M-12 228L12 228L36 228L60 228L84 228L108 228L132 228" stroke="rgba(18, 0, 65, 1)" stroke-width="4"></path><path d="M126 228 a6 6 0 1 0 12 0 a6 6 0 1 0 -12 0zM126 276 a6 6 0 1 0 12 0 a6 6 0 1 0 -12 0z" fill="rgba(18, 0, 65, 1)"></path><path d="M204 156L228 132M-12 156L12 156L36 156L60 156L84 156L108 156L132 156L156 156L180 156L204 156L228 156" stroke="rgba(18, 0, 65, 1)" stroke-width="4"></path><path d="M222 156 a6 6 0 1 0 12 0 a6 6 0 1 0 -12 0zM222 132 a6 6 0 1 0 12 0 a6 6 0 1 0 -12 0z" fill="rgba(18, 0, 65, 1)"></path><path d="M156 300L180 276L204 276L228 276L252 276M348 300L372 276M564 276L588 252L612 252L636 252L660 252L684 252L708 252L732 252M612 276L636 300L660 300L684 324L708 324L732 324L756 324M420 300L444 276L468 276L492 276L516 252M12 252L36 252M444 300L468 324M708 276L732 300L756 300L780 300M-12 252L12 252L36 276L60 276L84 276L108 276L132 300L156 300L180 300L204 300L228 300L252 300L276 300L300 300L324 300L348 300L372 300L396 300L420 300L444 300L468 300L492 300L516 276L540 276L564 276L588 276L612 276L636 276L660 276L684 276L708 276L732 276L756 276" stroke="rgba(142, 0, 255, 1)" stroke-width="4"></path><path d="M750 276 a6 6 0 1 0 12 0 a6 6 0 1 0 -12 0zM246 276 a6 6 0 1 0 12 0 a6 6 0 1 0 -12 0zM366 276 a6 6 0 1 0 12 0 a6 6 0 1 0 -12 0zM726 252 a6 6 0 1 0 12 0 a6 6 0 1 0 -12 0zM750 324 a6 6 0 1 0 12 0 a6 6 0 1 0 -12 0zM510 252 a6 6 0 1 0 12 0 a6 6 0 1 0 -12 0zM30 252 a6 6 0 1 0 12 0 a6 6 0 1 0 -12 0zM462 324 a6 6 0 1 0 12 0 a6 6 0 1 0 -12 0zM774 300 a6 6 0 1 0 12 0 a6 6 0 1 0 -12 0z" fill="rgba(142, 0, 255, 1)"></path><path d="M132 132L156 132M180 108L204 132M1092 60L1116 84M348 84L372 84L396 84M1068 84L1092 84M876 84L900 60L924 60M1020 84L1044 60M996 84L1020 60M252 108L276 132L300 132M828 84L852 60L876 60M1140 60L1164 84L1188 84L1212 84L1236 84L1260 84L1284 84L1308 84L1332 84L1356 84M972 84L996 60M-12 132L12 132L36 132L60 132L84 132L108 132L132 132L156 108L180 108L204 108L228 108L252 108L276 108L300 108L324 108L348 84L372 60L396 60L420 60L444 60L468 60L492 60L516 60L540 60L564 60L588 60L612 60L636 60L660 60L684 60L708 60L732 60L756 60L780 60L804 84L828 84L852 84L876 84L900 84L924 84L948 84L972 84L996 84L1020 84L1044 84L1068 84L1092 60L1116 60L1140 60L1164 60" stroke="rgba(142, 0, 255, 1)" stroke-width="4"></path><path d="M1158 60 a6 6 0 1 0 12 0 a6 6 0 1 0 -12 0zM150 132 a6 6 0 1 0 12 0 a6 6 0 1 0 -12 0zM198 132 a6 6 0 1 0 12 0 a6 6 0 1 0 -12 0zM1110 84 a6 6 0 1 0 12 0 a6 6 0 1 0 -12 0zM390 84 a6 6 0 1 0 12 0 a6 6 0 1 0 -12 0zM1086 84 a6 6 0 1 0 12 0 a6 6 0 1 0 -12 0zM918 60 a6 6 0 1 0 12 0 a6 6 0 1 0 -12 0zM1038 60 a6 6 0 1 0 12 0 a6 6 0 1 0 -12 0zM1014 60 a6 6 0 1 0 12 0 a6 6 0 1 0 -12 0zM294 132 a6 6 0 1 0 12 0 a6 6 0 1 0 -12 0zM870 60 a6 6 0 1 0 12 0 a6 6 0 1 0 -12 0zM1350 84 a6 6 0 1 0 12 0 a6 6 0 1 0 -12 0zM990 60 a6 6 0 1 0 12 0 a6 6 0 1 0 -12 0z" fill="rgba(142, 0, 255, 1)"></path><path d="M204 324L228 348M780 348L804 324M324 324L348 348L372 348M396 348L420 324L444 324M156 324L180 348L204 348M84 300L108 324L132 348L156 348M492 348L516 324L540 324L564 324L588 324L612 324L636 324M252 324L276 348L300 348L324 348M852 324L876 324L900 324L924 324L948 324M-12 276L12 276L36 300L60 300L84 300L108 300L132 324L156 324L180 324L204 324L228 324L252 324L276 324L300 324L324 324L348 324L372 324L396 348L420 348L444 348L468 348L492 348L516 348L540 348L564 348L588 348L612 348L636 348L660 348L684 348L708 348L732 348L756 348L780 348L804 348L828 348L852 324L876 300" stroke="rgba(18, 0, 65, 1)" stroke-width="4"></path><path d="M870 300 a6 6 0 1 0 12 0 a6 6 0 1 0 -12 0zM222 348 a6 6 0 1 0 12 0 a6 6 0 1 0 -12 0zM798 324 a6 6 0 1 0 12 0 a6 6 0 1 0 -12 0zM366 348 a6 6 0 1 0 12 0 a6 6 0 1 0 -12 0zM438 324 a6 6 0 1 0 12 0 a6 6 0 1 0 -12 0zM198 348 a6 6 0 1 0 12 0 a6 6 0 1 0 -12 0zM150 348 a6 6 0 1 0 12 0 a6 6 0 1 0 -12 0zM630 324 a6 6 0 1 0 12 0 a6 6 0 1 0 -12 0zM318 348 a6 6 0 1 0 12 0 a6 6 0 1 0 -12 0zM942 324 a6 6 0 1 0 12 0 a6 6 0 1 0 -12 0z" fill="rgba(18, 0, 65, 1)"></path><path d="M60 108L84 84L108 84M252 84L276 60L300 60L324 60L348 60M204 84L228 60L252 60M-12 108L12 108L36 108L60 108L84 108L108 108L132 108L156 84L180 84L204 84L228 84L252 84L276 84L300 84L324 84" stroke="rgba(18, 0, 65, 1)" stroke-width="4"></path><path d="M318 84 a6 6 0 1 0 12 0 a6 6 0 1 0 -12 0zM102 84 a6 6 0 1 0 12 0 a6 6 0 1 0 -12 0zM342 60 a6 6 0 1 0 12 0 a6 6 0 1 0 -12 0zM246 60 a6 6 0 1 0 12 0 a6 6 0 1 0 -12 0z" fill="rgba(18, 0, 65, 1)"></path></g></g><defs><mask id="SvgjsMask1351"><rect width="1440" height="400" fill="#ffffff"></rect></mask><radialGradient cx="50%" cy="50%" r="747.26" gradientUnits="userSpaceOnUse" id="SvgjsRadialGradient1352"><stop stop-color="#0e2a47" offset="0"></stop><stop stop-color="rgba(0, 16, 36, 1)" offset="1"></stop></radialGradient><mask id="SvgjsMask1353"><rect width="1440" height="400" fill="white"></rect><path d="M801 228 a3 3 0 1 0 6 0 a3 3 0 1 0 -6 0zM633 156 a3 3 0 1 0 6 0 a3 3 0 1 0 -6 0zM249 228 a3 3 0 1 0 6 0 a3 3 0 1 0 -6 0zM393 228 a3 3 0 1 0 6 0 a3 3 0 1 0 -6 0zM897 204 a3 3 0 1 0 6 0 a3 3 0 1 0 -6 0zM849 156 a3 3 0 1 0 6 0 a3 3 0 1 0 -6 0zM777 156 a3 3 0 1 0 6 0 a3 3 0 1 0 -6 0zM585 228 a3 3 0 1 0 6 0 a3 3 0 1 0 -6 0zM537 252 a3 3 0 1 0 6 0 a3 3 0 1 0 -6 0z" fill="black"></path><path d="M1353 156 a3 3 0 1 0 6 0 a3 3 0 1 0 -6 0zM609 156 a3 3 0 1 0 6 0 a3 3 0 1 0 -6 0zM1089 132 a3 3 0 1 0 6 0 a3 3 0 1 0 -6 0zM561 108 a3 3 0 1 0 6 0 a3 3 0 1 0 -6 0zM1113 132 a3 3 0 1 0 6 0 a3 3 0 1 0 -6 0zM969 156 a3 3 0 1 0 6 0 a3 3 0 1 0 -6 0zM561 180 a3 3 0 1 0 6 0 a3 3 0 1 0 -6 0zM753 84 a3 3 0 1 0 6 0 a3 3 0 1 0 -6 0zM1281 108 a3 3 0 1 0 6 0 a3 3 0 1 0 -6 0zM1305 180 a3 3 0 1 0 6 0 a3 3 0 1 0 -6 0zM393 180 a3 3 0 1 0 6 0 a3 3 0 1 0 -6 0zM489 156 a3 3 0 1 0 6 0 a3 3 0 1 0 -6 0zM753 156 a3 3 0 1 0 6 0 a3 3 0 1 0 -6 0zM777 108 a3 3 0 1 0 6 0 a3 3 0 1 0 -6 0zM753 108 a3 3 0 1 0 6 0 a3 3 0 1 0 -6 0z" fill="black"></path><path d="M129 228 a3 3 0 1 0 6 0 a3 3 0 1 0 -6 0zM129 276 a3 3 0 1 0 6 0 a3 3 0 1 0 -6 0z" fill="black"></path><path d="M225 156 a3 3 0 1 0 6 0 a3 3 0 1 0 -6 0zM225 132 a3 3 0 1 0 6 0 a3 3 0 1 0 -6 0z" fill="black"></path><path d="M753 276 a3 3 0 1 0 6 0 a3 3 0 1 0 -6 0zM249 276 a3 3 0 1 0 6 0 a3 3 0 1 0 -6 0zM369 276 a3 3 0 1 0 6 0 a3 3 0 1 0 -6 0zM729 252 a3 3 0 1 0 6 0 a3 3 0 1 0 -6 0zM753 324 a3 3 0 1 0 6 0 a3 3 0 1 0 -6 0zM513 252 a3 3 0 1 0 6 0 a3 3 0 1 0 -6 0zM33 252 a3 3 0 1 0 6 0 a3 3 0 1 0 -6 0zM465 324 a3 3 0 1 0 6 0 a3 3 0 1 0 -6 0zM777 300 a3 3 0 1 0 6 0 a3 3 0 1 0 -6 0z" fill="black"></path><path d="M1161 60 a3 3 0 1 0 6 0 a3 3 0 1 0 -6 0zM153 132 a3 3 0 1 0 6 0 a3 3 0 1 0 -6 0zM201 132 a3 3 0 1 0 6 0 a3 3 0 1 0 -6 0zM1113 84 a3 3 0 1 0 6 0 a3 3 0 1 0 -6 0zM393 84 a3 3 0 1 0 6 0 a3 3 0 1 0 -6 0zM1089 84 a3 3 0 1 0 6 0 a3 3 0 1 0 -6 0zM921 60 a3 3 0 1 0 6 0 a3 3 0 1 0 -6 0zM1041 60 a3 3 0 1 0 6 0 a3 3 0 1 0 -6 0zM1017 60 a3 3 0 1 0 6 0 a3 3 0 1 0 -6 0zM297 132 a3 3 0 1 0 6 0 a3 3 0 1 0 -6 0zM873 60 a3 3 0 1 0 6 0 a3 3 0 1 0 -6 0zM1353 84 a3 3 0 1 0 6 0 a3 3 0 1 0 -6 0zM993 60 a3 3 0 1 0 6 0 a3 3 0 1 0 -6 0z" fill="black"></path><path d="M873 300 a3 3 0 1 0 6 0 a3 3 0 1 0 -6 0zM225 348 a3 3 0 1 0 6 0 a3 3 0 1 0 -6 0zM801 324 a3 3 0 1 0 6 0 a3 3 0 1 0 -6 0zM369 348 a3 3 0 1 0 6 0 a3 3 0 1 0 -6 0zM441 324 a3 3 0 1 0 6 0 a3 3 0 1 0 -6 0zM201 348 a3 3 0 1 0 6 0 a3 3 0 1 0 -6 0zM153 348 a3 3 0 1 0 6 0 a3 3 0 1 0 -6 0zM633 324 a3 3 0 1 0 6 0 a3 3 0 1 0 -6 0zM321 348 a3 3 0 1 0 6 0 a3 3 0 1 0 -6 0zM945 324 a3 3 0 1 0 6 0 a3 3 0 1 0 -6 0z" fill="black"></path><path d="M321 84 a3 3 0 1 0 6 0 a3 3 0 1 0 -6 0zM105 84 a3 3 0 1 0 6 0 a3 3 0 1 0 -6 0zM345 60 a3 3 0 1 0 6 0 a3 3 0 1 0 -6 0zM249 60 a3 3 0 1 0 6 0 a3 3 0 1 0 -6 0z" fill="black"></path></mask></defs></svg>